# AST/ASF file generated using VICON BodyLanguage
# -----------------------------------------------
:version 1.10
:name VICON
:units
  mass 1.0
  length 0.45
  angle deg
:documentation
   .ast/.asf automatically generated from VICON data using
   VICON BodyBuilder and BodyLanguage model FoxedUp or BRILLIANT.MOD
:root
   order TX TY TZ RX RY RZ
   axis XYZ
   position 0 0 0  
   orientation 0 0 0 
:bonedata
  begin
     id 1 
     name lhipjoint
     direction 0.714689 -0.624256 0.315473 
     length 2.45343 
     axis 0 0 0  XYZ
  end
  begin
     id 2 
     name lfemur
     direction 0.34202 -0.939693 0  
     length 6.59069  
     axis 0 0 20  XYZ
    dof rx ry rz
    limits (-160.0 20.0)
           (-70.0 70.0)
           (-60.0 70.0)
  end
  begin
     id 3 
     name ltibia
     direction 0.34202 -0.939693 0   
     length 6.73476   
     axis 0 0 20   XYZ
    dof rx
    limits (-10.0 170.0)
  end
  begin
     id 4 
     name lfoot
     direction 0.0718085 -0.197292 0.977711   
     length 1.52607   
     axis -90 7.62852e-016 20   XYZ
    dof rx rz
    limits (-45.0 90.0)
           (-70.0 20.0)
  end
  begin
     id 5 
     name ltoes
     direction 1.53553e-011 -4.22024e-011 1   
     length 0.777832   
     axis -90 7.62852e-016 20   XYZ
    dof rx
    limits (-90.0 20.0)
  end
  begin
     id 6 
     name rhipjoint
     direction -0.727419 -0.612432 0.309497   
     length 2.50079  
     axis 0 0 0  XYZ 
  end
  begin
     id 7 
     name rfemur
     direction -0.34202 -0.939693 0   
     length 6.51665   
     axis 0 0 -20   XYZ
    dof rx ry rz
    limits (-160.0 20.0)
           (-70.0 70.0)
           (-70.0 60.0)
  end
  begin
     id 8 
     name rtibia
     direction -0.34202 -0.939693 0   
     length 6.48919   
     axis 0 0 -20   XYZ
    dof rx
    limits (-10.0 170.0)
 end
 begin
     id 9 
     name rfoot
     direction -0.112205 -0.308282 0.944655   
     length 1.68717  
     axis -90 -7.62852e-016 -20   XYZ
    dof rx rz
    limits (-45.0 90.0)
           (-20.0 70.0)
  end
  begin
     id 10 
     name rtoes
     direction -1.53583e-011 -4.21993e-011 1   
     length 0.846859   
     axis -90 -7.62852e-016 -20   XYZ
    dof rx
    limits (-90.0 20.0)
  end
  begin
     id 11 
     name lowerback
     direction -0.00119603 0.996364 -0.0851956   
     length 1.67242   
     axis 0 0 0   XYZ
    dof rx ry rz
    limits (-20.0 45.0)
           (-30.0 30.0)
           (-30.0 30.0)
  end
  begin
     id 12 
     name upperback
     direction -0.00531001 0.998318 0.0577248   
     length 1.64819   
     axis 0 0 0   XYZ
    dof rx ry rz
    limits (-20.0 45.0)
           (-30.0 30.0)
           (-30.0 30.0)
  end
  begin
     id 13 
     name thorax
     direction -0.00653676 0.995132 0.0983291   
     length 1.67429   
     axis 0 0 0   XYZ
    dof rx ry rz
    limits (-20.0 45.0)
           (-30.0 30.0)
           (-30.0 30.0)
  end
  begin
     id 14 
     name lowerneck
     direction 0.0141424 0.999886 0.00525412   
     length 1.59623   
     axis 0 0 0   XYZ
    dof rx ry rz
    limits (-20.0 45.0)
           (-30.0 30.0)
           (-30.0 30.0)
  end
  begin
     id 15 
     name upperneck
     direction -0.0640064 0.987178 -0.146232   
     length 1.59576   
     axis 0 0 0   XYZ
    dof rx ry rz
    limits (-20.0 45.0)
           (-30.0 30.0)
           (-30.0 30.0)
  end
  begin
     id 16
     name head
     direction -0.0222942 0.998496 -0.0500859  
     length 1.60959  
     axis 0 0 0   XYZ
    dof rx ry rz
    limits (-20.0 45.0)
           (-30.0 30.0)
           (-30.0 30.0)
  end
  begin
     id 17 
     name lclavicle
     direction 0.908549 0.392612 0.142806  
     length 2.80649  
     axis 0 0 0   XYZ
    dof ry rz
    limits (-20.0 10.0)
           (0.0 20.0)
  end
  begin
     id 18 
     name lhumerus
     direction 1 -4.48968e-011 1.08832e-028   
     length 4.2884   
     axis -180 -30 -90   XYZ
    dof rx ry rz
    limits (-60.0 90.0)
           (-90.0 90.0)
           (-90.0 90.0)
  end
  begin
     id 19
     name lradius
     direction 1 -4.48952e-011 -3.02642e-028   
     length 3.06552   
     axis -180 -30 -90   XYZ
    dof rx
    limits (-10.0 170.0)
  end
  begin
     id 20
     name lwrist
     direction 1 -4.49014e-011 1.58672e-027   
     length 1.53276   
     axis -1.65735e-015 90 90   XYZ
    dof ry
    limits (-180.0 0.0)
 end
  begin
     id 21 
     name lhand
     direction 1 -4.48928e-011 3.17344e-027   
     length 0.753045   
     axis -2.02492e-015 90 90   XYZ
    dof rx rz
    limits (-90.0 90.0)
           (-45.0 45.0)
  end
  begin
     id 22 
     name lfingers
     direction 1 -4.48958e-011 6.34687e-027   
     length 0.607124   
     axis -4.04985e-015 90 90   XYZ
    dof rx
    limits (0.0 90.0)
  end
  begin
     id 23
     name lthumb
     direction 0.707107 -6.34905e-011 0.707107   
     length 0.871712   
     axis -90 45 2.85299e-015   XYZ
    dof rx rz
    limits (-45.0 45.0)
           (-45.0 45.0)
  end
  begin
     id 24 
     name rclavicle
     direction -0.885098 0.45949 0.0739604   
     length 2.9478  
     axis 0 0 0   XYZ 
    dof ry rz
    limits (-10.0 20.0)
           (-20.0 0.0)
  end
  begin
     id 25 
     name rhumerus
     direction -1 -4.4898e-011 -2.61739e-027  
     length 4.52172   
     axis -180 30 90   XYZ
    dof rx ry rz
    limits (-90.0 60.0)
           (-90.0 90.0)
           (-90.0 90.0)
  end
  begin
     id 26 
     name rradius
     direction -1 -4.48945e-011 9.02552e-028   
     length 2.8914   
     axis -180 30 90   XYZ
    dof rx
    limits (-10.0 170.0)
  end
  begin
     id 27 
     name rwrist
     direction -1 -4.49018e-011 1.58672e-027   
     length 1.4457   
     axis -1.65735e-015 -90 -90   XYZ
    dof ry
    limits (-180.0 0.0)
  end
  begin
     id 28
     name rhand
     direction -1 -4.48825e-011 3.17344e-027   
     length 0.680541   
     axis -2.02492e-015 -90 -90   XYZ
    dof rx rz
    limits (-90.0 90.0)
           (-45.0 45.0)
  end
  begin
     id 29
     name rfingers
     direction -1 -4.49067e-011 6.34687e-027   
     length 0.54867   
     axis -4.04985e-015 -90 -90   XYZ
    dof rx
    limits (0.0 90.0)
  end
  begin
     id 30
     name rthumb
     direction -0.707107 -6.34833e-011 0.707107   
     length 0.787783   
     axis -90 -45 -2.85299e-015   XYZ
    dof rx rz
    limits (-45.0 45.0)
           (-45.0 45.0)
  end
:hierarchy
  begin
    root lhipjoint rhipjoint lowerback
    lhipjoint lfemur
    lfemur ltibia
    ltibia lfoot
    lfoot ltoes
    rhipjoint rfemur
    rfemur rtibia
    rtibia rfoot
    rfoot rtoes
    lowerback upperback
    upperback thorax
    thorax lowerneck lclavicle rclavicle
    lowerneck upperneck
    upperneck head
    lclavicle lhumerus
    lhumerus lradius
    lradius lwrist
    lwrist lhand lthumb
    lhand lfingers
    rclavicle rhumerus
    rhumerus rradius
    rradius rwrist
    rwrist rhand rthumb
    rhand rfingers
  end

#!OML:ASF E:\emotionWalksFemale\Project 1\Capture day 1\Session 1\Female1.ASF
:FULLY-SPECIFIED
:DEGREES
578
root 11.5085 15.4386 -7.19308 187.259 -54.7414 172.672
lowerback 7.61647 -1.89266 -4.4692
upperback -3.89681 -3.11358 -0.454462
thorax -8.19332 -1.30622 2.47829
lowerneck -9.98238 -1.37201 -4.89852
upperneck 17.8352 -1.79418 2.32515
head 7.16897 -1.11721 1.38796
rclavicle 2.2736e-014 8.15017e-015
rhumerus -53.775 4.73863 -81.3665
rradius 31.6635
rwrist 15.59
rhand -1.91399 -52.8617
rfingers 7.12502
rthumb 23.7559 -81.4132
lclavicle 2.2736e-014 8.15017e-015
lhumerus -30.3523 -1.28386 84.6723
lradius 50.6774
lwrist -2.10147
lhand -10.5057 -33.0608
lfingers 7.12502
lthumb 15.4967 -3.66181
rfemur -29.5478 28.5531 7.11035
rtibia 21.5463
rfoot -30.1508 -45.1908
rtoes 12.2179
lfemur 19.4706 -14.7866 -35.6662
ltibia 2.22639e-014
lfoot -9.67721 18.7395
ltoes -19.1955
579
root 11.4045 15.4263 -7.3073 187.489 -54.9407 172.5
lowerback 7.56134 -1.93865 -4.5667
upperback -3.9723 -3.18907 -0.461851
thorax -8.2335 -1.33692 2.53486
lowerneck -10.0612 -1.35971 -4.93299
upperneck 17.9459 -1.79209 2.43385
head 7.21982 -1.11065 1.42901
rclavicle 8.77137e-015 5.1684e-015
rhumerus -53.9308 4.52301 -81.1207
rradius 31.5378
rwrist 15.8095
rhand -1.66994 -52.764
rfingers 7.12502
rthumb 23.9899 -81.285
lclavicle 8.77137e-015 5.1684e-015
lhumerus -30.7018 -1.47627 84.8155
lradius 51.1196
lwrist -1.92145
lhand -10.5021 -33.2391
lfingers 7.12502
lthumb 15.5001 -3.84044
rfemur -29.7118 29.8587 6.49132
rtibia 21.1172
rfoot -29.6984 -46.0798
rtoes 10.8988
lfemur 19.8767 -14.4301 -35.5696
ltibia -2.22639e-014
lfoot -8.58573 18.43
ltoes -25.4037
580
root 11.2979 15.4173 -7.42302 187.602 -55.1536 172.472
lowerback 7.40511 -1.99661 -4.58164
upperback -3.98489 -3.25944 -0.444504
thorax -8.1489 -1.37288 2.56396
lowerneck -10.2315 -1.39835 -4.84718
upperneck 18.0972 -1.83552 2.32493
head 7.29944 -1.13644 1.3745
rclavicle -1.77167e-014 -9.54166e-015
rhumerus -53.8978 4.25911 -80.8541
rradius 31.2648
rwrist 16.045
rhand -1.66704 -52.6062
rfingers 7.12502
rthumb 23.9927 -81.1268
lclavicle -1.77167e-014 -9.54166e-015
lhumerus -31.0056 -1.61652 84.9638
lradius 51.5147
lwrist -1.67456
lhand -10.5231 -33.2373
lfingers 7.12502
lthumb 15.4799 -3.83704
rfemur -29.5888 30.2657 6.45796
rtibia 20.7837
rfoot -30.251 -45.6697
rtoes 12.4589
lfemur 20.3174 -14.0852 -35.3553
ltibia 3.49861e-014
lfoot -7.8185 18.1085
ltoes -28.966
581
root 11.1899 15.4121 -7.54355 187.554 -55.3405 172.482
lowerback 7.34074 -2.0412 -4.54242
upperback -3.99277 -3.3138 -0.464927
thorax -8.11893 -1.40341 2.5249
lowerneck -10.2276 -1.44724 -4.75359
upperneck 18.16 -1.89814 2.18721
head 7.31969 -1.17442 1.30806
rclavicle 1.48716e-013 1.78906e-014
rhumerus -53.9291 3.98746 -80.7078
rradius 31.0505
rwrist 16.0952
rhand -1.93997 -52.7346
rfingers 7.12502
rthumb 23.731 -81.2895
lclavicle 1.48716e-013 1.78906e-014
lhumerus -31.3561 -1.59879 85.0735
lradius 51.7812
lwrist -1.52538
lhand -10.563 -32.969
lfingers 7.12502
lthumb 15.4414 -3.56577
rfemur -29.0021 29.7434 7.05096
rtibia 20.5161
rfoot -28.4777 -45.0793
rtoes 10.4936
lfemur 20.9563 -13.6953 -35.0915
ltibia 1.27222e-014
lfoot -7.63028 17.6603
ltoes -28.8623
582
root 11.0827 15.4063 -7.66672 187.439 -55.4972 172.495
lowerback 7.38386 -2.07873 -4.51522
upperback -4.01557 -3.36641 -0.483161
thorax -8.16745 -1.42957 2.50034
lowerneck -10.3121 -1.47512 -4.67761
upperneck 18.2947 -1.91857 2.01212
head 7.37741 -1.1973 1.23574
rclavicle 4.38569e-014 1.11319e-014
rhumerus -53.9849 3.70448 -80.5368
rradius 30.889
rwrist 16.3235
rhand -2.20227 -52.8785
rfingers 7.12502
rthumb 23.4794 -81.4657
lclavicle 4.38569e-014 1.11319e-014
lhumerus -31.7681 -1.39297 85.0912
lradius 51.9605
lwrist -1.59318
lhand -10.4964 -32.8606
lfingers 7.12502
lthumb 15.5056 -3.46231
rfemur -28.1394 28.6502 7.98838
rtibia 20.2727
rfoot -26.1114 -43.9512
rtoes 7.92592
lfemur 20.1181 -13.2605 -34.8237
ltibia 3.07775
lfoot -8.82095 17.4463
ltoes -28.7817
583
root 10.9737 15.4004 -7.79168 187.372 -55.6251 172.579
lowerback 7.30709 -2.10734 -4.54721
upperback -4.05076 -3.39784 -0.388711
thorax -8.15096 -1.4403 2.6192
lowerneck -10.5545 -1.4723 -4.82621
upperneck 18.5707 -1.8765 1.96859
head 7.51102 -1.19536 1.24867
rclavicle -3.12713e-014 2.98177e-015
rhumerus -54.0151 3.36086 -80.0291
rradius 30.774
rwrist 17.0952
rhand -1.81631 -52.6877
rfingers 7.12502
rthumb 23.8496 -81.2271
lclavicle -3.12713e-014 2.98177e-015
lhumerus -32.1421 -0.959959 85.2165
lradius 52.01
lwrist -1.85855
lhand -10.5492 -33.0453
lfingers 7.12502
lthumb 15.4547 -3.64308
rfemur -27.2844 26.9965 9.15322
rtibia 20.115
rfoot -23.2908 -42.4078
rtoes 4.31713
lfemur 19.6262 -12.8283 -34.462
ltibia 5.22775
lfoot -9.39507 17.0486
ltoes -27.9655
584
root 10.8628 15.3974 -7.92083 187.277 -55.7152 172.741
lowerback 7.12159 -2.08464 -4.5735
upperback -4.07827 -3.35391 -0.294403
thorax -8.06863 -1.41704 2.71904
lowerneck -10.6459 -1.5083 -4.88954
upperneck 18.7094 -1.90981 1.94003
head 7.57478 -1.22086 1.24594
rclavicle -1.21259e-014 6.75868e-015
rhumerus -54.1373 3.21368 -79.7691
rradius 30.7285
rwrist 17.4254
rhand -1.62543 -52.5666
rfingers 7.12502
rthumb 24.0326 -81.0819
lclavicle -1.21259e-014 6.75868e-015
lhumerus -32.585 -0.887715 85.4
lradius 52.0358
lwrist -1.82987
lhand -10.5614 -33.3427
lfingers 7.12502
lthumb 15.4429 -3.93955
rfemur -26.4355 25.1017 10.5007
rtibia 20.1303
rfoot -19.9123 -40.768
rtoes -0.61818
lfemur 19.4107 -12.3725 -34.0183
ltibia 6.73231
lfoot -9.96477 15.8888
ltoes -25.1757
585
root 10.7524 15.3958 -8.05312 187.062 -55.8331 172.948
lowerback 7.04653 -2.07329 -4.5144
upperback -4.15027 -3.33644 -0.329528
thorax -8.10925 -1.41192 2.64523
lowerneck -10.5117 -1.55849 -4.68512
upperneck 18.7225 -2.02161 1.89932
head 7.55617 -1.26668 1.18839
rclavicle 3.62782e-014 7.35503e-015
rhumerus -54.3601 3.33516 -80.0896
rradius 30.6256
rwrist 17.1451
rhand -2.02103 -52.6859
rfingers 7.12502
rthumb 23.6532 -81.2508
lclavicle 3.62782e-014 7.35503e-015
lhumerus -33.1673 -1.05712 85.4141
lradius 52.072
lwrist -1.5917
lhand -10.3871 -33.3251
lfingers 7.12502
lthumb 15.6109 -3.93501
rfemur -25.6181 23.9378 11.6557
rtibia 20.299
rfoot -17.941 -39.3189
rtoes -1.80459
lfemur 19.3634 -11.917 -33.5823
ltibia 7.97853
lfoot -9.88169 14.5662
ltoes -26.4022
586
root 10.6405 15.3959 -8.18434 186.829 -55.9899 173.083
lowerback 7.08205 -2.04811 -4.38423
upperback -4.24405 -3.3058 -0.430205
thorax -8.24655 -1.40357 2.46701
lowerneck -10.3423 -1.60673 -4.56558
upperneck 18.7647 -2.1506 2.01714
head 7.5435 -1.31369 1.19556
rclavicle -1.1527e-013 -3.97569e-016
rhumerus -54.5555 3.25119 -80.2342
rradius 30.4859
rwrist 17.2371
rhand -1.72171 -52.7146
rfingers 7.12502
rthumb 23.9403 -81.2421
lclavicle -1.1527e-013 -3.97569e-016
lhumerus -33.8379 -1.09134 85.4288
lradius 52.1017
lwrist -1.55421
lhand -10.2659 -33.0471
lfingers 7.12502
lthumb 15.7276 -3.66615
rfemur -24.9226 23.6976 12.392
rtibia 20.5676
rfoot -16.5586 -38.5378
rtoes -1.90176
lfemur 19.4259 -11.489 -33.1936
ltibia 9.12659
lfoot -9.20696 13.879
ltoes -30.1757
587
root 10.5249 15.4045 -8.31436 186.775 -56.1438 173.041
lowerback 6.97622 -1.99873 -4.33674
upperback -4.26025 -3.23562 -0.488886
thorax -8.21298 -1.37552 2.36476
lowerneck -10.3162 -1.65712 -4.71754
upperneck 18.8161 -2.24683 2.26684
head 7.56331 -1.34914 1.29357
rclavicle -1.0666e-013 -1.78906e-014
rhumerus -54.5488 3.06392 -80.1092
rradius 30.3402
rwrist 17.4795
rhand -1.24639 -52.7871
rfingers 7.12502
rthumb 24.396 -81.254
lclavicle -1.0666e-013 -1.78906e-014
lhumerus -34.57 -1.25069 85.53
lradius 52.2488
lwrist -1.37103
lhand -10.2561 -32.8483
lfingers 7.12502
lthumb 15.7371 -3.46815
rfemur -24.4032 24.0658 12.7372
rtibia 20.8858
rfoot -14.7525 -38.6353
rtoes -4.47553
lfemur 19.4907 -11.0886 -32.8568
ltibia 10.2598
lfoot -8.7457 13.2208
ltoes -29.6033
